<?xml version="1.0" encoding="utf-8"?>
<!-- Generator: Adobe Illustrator 25.1.0, SVG Export Plug-In . SVG Version: 6.00 Build 0)  -->
<svg version="1.1" id="Capa_1" xmlns="http://www.w3.org/2000/svg" xmlns:xlink="http://www.w3.org/1999/xlink" x="0px" y="0px"
	 viewBox="0 0 288.2 288.2" style="enable-background:new 0 0 288.2 288.2;" xml:space="preserve">
<style type="text/css">
	.st0{fill:#FFFFFF;}
</style>
<g>
	<path class="st0" d="M203.3,9.3c-22.5,0-43.7,8.9-59.2,24.1C128.5,18.2,107.4,9.3,84.9,9.3C38.1,9.3,0,47.3,0,94.1
		c0,37.7,13.8,71.2,43.3,105.3c23.7,27.3,87,70.2,89.7,72l11,7.4v0.1l0.1-0.1l0.1,0.1v-0.1l11-7.4c2.7-1.8,66.1-44.7,89.7-72
		c29.5-34.1,43.3-67.5,43.3-105.3C288.2,47.3,250.1,9.3,203.3,9.3z M214.7,173.2c-13.9,16-49.1,42.2-70.6,57.2
		c-21.4-15.1-56.7-41.2-70.6-57.2C50.7,146.8,40,121.7,40,94.1c0-24.7,20.1-44.9,44.9-44.9c17.7,0,31.3,6.6,45.5,21.9
		c4.7,5.1,12.3,15.4,13.6,17.2v0.3c0,0,0,0,0.1-0.1c0.1,0.1,0.1,0.1,0.1,0.1v-0.3c1.3-1.8,8.9-12.2,13.6-17.2
		c14.2-15.3,27.8-21.9,45.5-21.9c24.7,0,44.9,20.1,44.9,44.9C248.2,121.7,237.5,146.8,214.7,173.2z"/>
</g>
</svg>
