<?xml version="1.0" encoding="utf-8"?>
<!-- Generator: Adobe Illustrator 25.1.0, SVG Export Plug-In . SVG Version: 6.00 Build 0)  -->
<svg version="1.1" id="Capa_1" xmlns="http://www.w3.org/2000/svg" xmlns:xlink="http://www.w3.org/1999/xlink" x="0px" y="0px"
	 viewBox="0 0 288.2 288.2" style="enable-background:new 0 0 288.2 288.2;" xml:space="preserve">
<g>
	<path d="M288.2,94.1c0,37.8-13.8,71.2-43.3,105.3c-23.7,27.3-87,70.2-89.7,72l-11,7.4v0.1l-0.1-0.1l-0.1,0.1v-0.1l-11-7.4
		c-2.7-1.8-66.1-44.7-89.7-72C13.8,165.3,0,131.9,0,94.1C0,47.3,38.1,9.3,84.9,9.3c22.5,0,43.7,8.9,59.2,24.1
		c15.6-15.2,36.7-24.1,59.2-24.1C250.1,9.3,288.2,47.3,288.2,94.1z"/>
</g>
</svg>
