<?xml version="1.0" encoding="utf-8"?>
<!-- Generator: Adobe Illustrator 25.1.0, SVG Export Plug-In . SVG Version: 6.00 Build 0)  -->
<svg version="1.1" id="Laag_1" xmlns="http://www.w3.org/2000/svg" xmlns:xlink="http://www.w3.org/1999/xlink" x="0px" y="0px"
	 viewBox="0 0 59 59" style="enable-background:new 0 0 59 59;" xml:space="preserve">
<style type="text/css">
	.st0{fill:#FFFFFF;}
</style>
<desc>Created with Sketch.</desc>
<g id="_xD83D__xDD0D_-System-Icons">
	<g id="ic_fluent_person_48_regular">
		<path id="_xD83C__xDFA8_-Color" class="st0" d="M29.6,3c-8.2,0-14.9,6.7-14.9,14.9s6.7,14.9,14.9,14.9s14.9-6.7,14.9-14.9
			S37.8,3,29.6,3z M29.6,29.1c-6.1,0-11.2-5.1-11.2-11.2S23.5,6.8,29.6,6.8s11.2,5.1,11.2,11.2S35.7,29.1,29.6,29.1z M47.2,38.9H12
			h-0.3c-3.3,0.1-6,3-6,6.3v1.2v0.4c0.1,3.6-0.9,9.1,3.7,9.1v-9.3l0,0c0-0.1,0-0.3,0-0.4V45v-0.1c0.1-1.3,1.2-2.4,2.5-2.4h35.1h0.1
			c1.3,0.1,2.4,1.2,2.4,2.5v1.3v0.4l0,0V56c3.7,0,3.7-5.7,3.7-9.6V45C53.3,41.5,50.5,38.9,47.2,38.9z"/>
	</g>
</g>
</svg>
